<svg width="40" height="40" viewBox="0 0 40 40" fill="none" xmlns="http://www.w3.org/2000/svg">
    <!-- Mountain silhouette -->
    <path d="M2 30 L10 18 L18 25 L25 15 L32 22 L38 30 L38 35 L2 35 Z" fill="#2d7d32"/>
    
    <!-- Secondary mountain layer -->
    <path d="M5 30 L12 20 L20 26 L28 17 L35 30 L35 35 L5 35 Z" fill="#388e3c" opacity="0.8"/>
    
    <!-- Sun -->
    <circle cx="30" cy="10" r="4" fill="#ffc107"/>
    
    <!-- Sun rays -->
    <g stroke="#ffc107" stroke-width="1" stroke-linecap="round">
        <line x1="30" y1="2" x2="30" y2="5"/>
        <line x1="30" y1="15" x2="30" y2="18"/>
        <line x1="22" y1="10" x2="25" y2="10"/>
        <line x1="35" y1="10" x2="38" y2="10"/>
        <line x1="24.9" y1="4.9" x2="26.8" y2="6.8"/>
        <line x1="33.2" y1="13.2" x2="35.1" y2="15.1"/>
        <line x1="35.1" y1="4.9" x2="33.2" y2="6.8"/>
        <line x1="26.8" y1="13.2" x2="24.9" y2="15.1"/>
    </g>
    
    <!-- Tree -->
    <path d="M8 25 L8 30 M6 25 L10 25 M7 22 L9 22 M6.5 20 L9.5 20" stroke="#4caf50" stroke-width="1.5" stroke-linecap="round"/>
    <circle cx="8" cy="20" r="2.5" fill="#4caf50"/>
    
    <!-- Trail path -->
    <path d="M15 32 Q20 30 25 32 Q30 34 35 32" stroke="#8d6e63" stroke-width="2" stroke-dasharray="2,2" fill="none" opacity="0.6"/>
    
    <!-- Small clouds -->
    <g fill="white" opacity="0.7">
        <circle cx="15" cy="8" r="1.5"/>
        <circle cx="17" cy="8" r="2"/>
        <circle cx="19" cy="8" r="1.5"/>
        
        <circle cx="6" cy="12" r="1"/>
        <circle cx="7.5" cy="12" r="1.5"/>
        <circle cx="9" cy="12" r="1"/>
    </g>
    
    <!-- Border circle -->
    <circle cx="20" cy="20" r="19" stroke="#2d7d32" stroke-width="2" fill="none"/>
</svg>
